<?xml version="1.0" standalone="no"?>
<!DOCTYPE svg PUBLIC "-//W3C//DTD SVG 20010904//EN"
 "http://www.w3.org/TR/2001/REC-SVG-20010904/DTD/svg10.dtd">
<svg version="1.0" xmlns="http://www.w3.org/2000/svg"
 width="964.000000pt" height="1024.000000pt" viewBox="0 0 964.000000 1024.000000"
 preserveAspectRatio="xMidYMid meet">

<g transform="translate(0.000000,1024.000000) scale(0.100000,-0.100000)"
fill="#000000" stroke="none">
<path d="M7432 9830 c-37 -9 -105 -69 -128 -112 -14 -27 -17 -28 -102 -28 -63
0 -98 -6 -127 -19 -48 -22 -127 -107 -161 -173 -18 -36 -34 -51 -66 -66 -77
-35 -126 -97 -153 -198 -2 -6 -22 -14 -45 -18 -77 -12 -157 -109 -170 -204 -5
-43 -6 -45 -65 -68 -33 -13 -72 -37 -87 -54 -28 -30 -58 -114 -58 -161 0 -22
-12 -35 -62 -71 -79 -54 -109 -108 -116 -209 -5 -67 -6 -70 -36 -83 -72 -30
-136 -130 -136 -213 0 -22 -6 -36 -20 -43 -32 -17 -100 -115 -107 -152 l-5
-35 -46 15 c-60 20 -93 4 -105 -53 -15 -71 -16 -71 -43 -42 -38 42 -48 36 -79
-48 l-19 -50 -41 125 c-45 140 -68 183 -102 199 -34 15 -152 14 -258 -4 -120
-20 -117 -20 -143 21 -21 32 -27 36 -56 31 -31 -5 -32 -4 -44 46 -16 70 -47
97 -112 97 -38 0 -52 4 -59 19 -15 26 -90 61 -134 61 -53 0 -85 -18 -103 -59
l-16 -36 -108 -2 c-76 -1 -117 -6 -138 -17 -35 -18 -116 -21 -177 -6 -56 13
-97 -3 -143 -56 l-38 -45 -23 42 c-23 41 -24 41 -70 34 -148 -20 -459 -113
-492 -146 -24 -24 -23 -49 4 -129 26 -76 42 -84 86 -41 32 31 68 47 79 36 4
-4 7 -52 7 -108 0 -78 -5 -110 -18 -134 -21 -39 -33 -42 -41 -9 -10 41 -101
131 -154 154 -49 21 -49 22 -54 73 -6 64 -37 98 -96 106 -41 6 -42 7 -119 136
-88 146 -133 197 -213 237 -102 51 -186 72 -302 74 l-106 2 -34 45 c-42 55
-115 105 -168 114 -81 14 -206 -50 -245 -125 -11 -22 -28 -32 -68 -44 -66 -19
-101 -53 -138 -131 -34 -70 -39 -155 -14 -226 15 -42 15 -46 -9 -99 -31 -70
-56 -163 -56 -212 0 -91 61 -261 160 -444 28 -51 50 -95 50 -97 0 -2 -22 -7
-48 -10 -73 -9 -190 -64 -208 -98 -8 -15 -14 -36 -14 -46 0 -28 -47 -122 -80
-160 -17 -18 -30 -45 -30 -59 0 -44 -29 -97 -90 -160 -33 -34 -60 -70 -60 -78
0 -20 38 -36 88 -37 44 0 104 -20 109 -35 2 -6 -29 -21 -69 -34 -94 -29 -148
-57 -148 -75 0 -8 14 -22 32 -31 l32 -17 -79 -37 c-103 -47 -110 -56 -98 -121
10 -49 9 -51 -23 -90 -44 -53 -49 -88 -30 -200 16 -91 15 -97 -4 -168 -25 -89
-18 -103 37 -77 21 10 51 22 66 27 l28 8 -25 -44 c-14 -24 -26 -52 -26 -63 0
-23 -18 -32 -68 -32 -70 0 -268 -114 -297 -170 -15 -30 -14 -35 30 -170 38
-116 45 -151 45 -216 0 -73 -3 -83 -55 -188 -57 -118 -76 -188 -96 -362 -13
-115 -7 -207 26 -428 24 -157 24 -160 6 -190 -33 -54 -53 -142 -50 -217 4 -69
3 -70 -28 -90 -75 -48 -93 -135 -47 -227 27 -55 69 -88 125 -98 19 -3 49 -13
68 -21 19 -8 60 -20 92 -26 52 -10 58 -14 63 -40 3 -16 6 -39 6 -51 0 -12 27
-67 60 -122 50 -83 60 -106 60 -145 0 -69 19 -248 31 -294 22 -79 71 -167 105
-183 18 -8 40 -12 50 -8 15 6 16 19 10 137 l-6 130 57 26 c32 14 95 34 140 46
97 24 145 17 252 -33 61 -29 63 -31 57 -61 -3 -18 -6 -42 -6 -55 0 -16 -8 -28
-22 -34 -121 -50 -283 -128 -350 -167 -172 -102 -302 -268 -382 -491 -31 -87
-32 -103 -7 -133 18 -23 27 -24 158 -29 135 -5 140 -6 188 -37 78 -51 134
-107 141 -142 8 -40 38 -62 74 -54 55 11 120 -45 165 -140 36 -77 54 -86 98
-47 29 25 43 30 85 30 28 0 63 5 79 11 15 7 82 13 148 14 66 2 129 5 140 7 22
3 23 -2 10 -110 l-8 -63 54 6 c30 4 59 8 66 10 15 5 29 -13 37 -50 13 -54 33
-72 100 -94 94 -30 118 -28 153 14 27 34 33 36 119 47 78 10 102 9 175 -6 119
-26 146 -29 152 -19 4 5 15 52 27 104 27 127 59 187 130 252 121 109 163 113
168 14 2 -41 -2 -67 -17 -96 -12 -22 -24 -64 -27 -95 -6 -51 -5 -57 23 -84 29
-29 29 -30 25 -126 -6 -123 2 -137 88 -154 166 -35 242 -83 327 -208 53 -77
61 -84 121 -91 41 -4 60 -14 100 -49 28 -24 55 -44 61 -44 6 0 41 16 78 36 67
35 69 36 163 31 238 -12 399 -27 445 -41 76 -23 232 -46 311 -46 81 0 89 5
122 83 26 59 54 72 172 80 50 4 127 19 187 36 124 37 167 38 258 6 39 -13 89
-25 111 -25 39 0 46 4 104 71 73 82 102 99 179 106 73 7 101 22 136 73 16 23
46 50 67 61 47 24 68 64 68 130 0 52 0 52 21 33 11 -10 40 -57 65 -105 24 -47
56 -96 69 -109 33 -31 43 -21 85 90 45 120 66 156 117 211 53 57 114 89 169
89 50 0 66 11 80 52 10 30 14 33 58 36 58 4 61 11 71 146 6 73 11 99 23 103
26 11 47 -13 63 -72 23 -88 40 -92 101 -25 64 71 149 198 183 275 14 33 35
101 45 150 25 121 31 135 87 197 69 76 79 105 59 164 -20 60 -20 121 -1 168
10 24 13 50 9 71 -6 32 -1 39 52 96 33 34 70 66 84 71 16 6 82 5 188 -3 143
-11 165 -11 178 3 17 16 18 13 -116 203 -109 155 -126 224 -71 287 39 46 51
71 51 112 0 33 3 36 41 47 53 16 83 54 74 94 -19 95 -20 90 34 148 28 30 78
69 110 86 49 26 71 46 71 66 0 13 -151 99 -212 121 l-78 27 0 66 c0 36 -3 83
-6 103 l-7 37 52 -6 51 -6 0 37 0 36 53 0 c29 0 62 6 72 14 17 13 18 19 7 78
-13 72 -16 520 -3 552 4 11 41 36 81 55 41 20 76 42 78 48 5 18 -48 63 -136
115 -100 59 -181 88 -264 95 -38 3 -68 9 -68 13 0 4 9 32 20 64 10 31 17 63
13 71 -8 21 -57 19 -104 -6 -22 -11 -44 -19 -48 -17 -5 2 -2 25 6 52 13 43 33
69 145 180 l130 131 28 -60 c15 -33 30 -76 34 -96 9 -48 27 -63 68 -55 42 8
123 67 149 109 31 49 23 162 -18 242 -51 100 -149 227 -278 364 -78 82 -127
143 -135 165 -11 33 -9 38 21 76 29 36 75 60 116 60 44 0 211 67 275 110 142
94 233 221 227 314 -1 17 8 53 21 80 26 57 19 99 -17 104 -12 2 -29 14 -37 28
-9 13 -21 24 -27 24 -6 0 -63 -39 -127 -87 -103 -77 -191 -132 -214 -133 -5 0
-8 33 -8 74 0 89 -12 126 -39 126 -30 0 -92 -59 -113 -106 -11 -26 -46 -66
-88 -104 -39 -35 -90 -93 -114 -130 -24 -37 -49 -71 -56 -75 -7 -4 -24 4 -39
19 -31 29 -106 56 -155 56 -17 0 -62 -12 -101 -25 -76 -27 -89 -30 -81 -16 4
5 3 17 -1 26 -5 14 -15 16 -52 12 -25 -3 -54 -9 -63 -12 -36 -14 -17 19 45 79
34 34 74 71 90 83 35 29 34 40 -4 61 -36 19 -124 87 -186 144 -26 23 -53 38
-68 38 -49 0 -140 66 -181 132 l-25 39 40 39 c44 43 61 89 61 166 l0 52 58 28
c70 35 93 73 118 190 l17 83 52 16 c69 20 126 75 154 149 11 31 21 64 21 72 0
8 14 23 31 32 66 36 126 91 141 129 9 21 19 68 23 104 7 67 7 67 42 72 55 9
118 52 138 93 10 22 17 62 18 104 l1 69 33 6 c44 8 99 57 114 102 6 21 9 63 6
99 -4 61 -4 63 29 95 19 18 37 47 40 66 10 51 -5 120 -31 151 -22 27 -24 34
-18 119 11 172 -36 241 -177 261 -44 7 -46 9 -77 73 -37 78 -70 105 -148 121
-42 10 -69 9 -117 -1 -35 -7 -67 -17 -72 -22 -6 -5 -22 1 -40 15 -70 53 -161
75 -234 56z m-5273 -1270 c49 -25 127 -111 109 -120 -7 -4 -40 -13 -72 -20
-33 -7 -79 -21 -103 -31 l-44 -19 -50 35 c-28 19 -66 37 -85 41 l-34 6 18 30
c47 82 178 121 261 78z m-331 -177 c-5 -21 -7 -62 -4 -93 l6 -55 -45 -45 c-25
-25 -57 -62 -72 -82 -14 -21 -29 -38 -33 -38 -10 0 -30 72 -30 108 0 84 62
195 123 223 62 27 67 26 55 -18z m128 21 c18 -9 39 -23 46 -31 11 -13 10 -18
-6 -27 -10 -6 -45 -28 -78 -48 -32 -21 -61 -38 -63 -38 -7 0 -6 111 1 138 8
27 49 30 100 6z m650 -17 c79 -27 125 -50 167 -81 30 -22 105 -130 178 -256
42 -72 46 -75 84 -78 55 -5 85 -34 85 -84 l0 -39 -44 6 c-49 8 -130 -7 -183
-32 -21 -9 -50 -39 -74 -74 l-39 -58 -57 26 c-77 35 -168 44 -238 22 -167 -52
-239 -150 -240 -330 0 -81 2 -91 40 -165 66 -130 156 -179 330 -179 81 0 95 3
144 30 61 34 132 116 157 182 18 45 18 46 109 63 33 6 82 18 109 26 77 22 129
18 165 -12 62 -52 60 -156 -6 -199 -17 -12 -100 -40 -185 -63 -84 -23 -187
-51 -228 -62 -102 -28 -216 -98 -320 -197 -131 -124 -190 -251 -190 -410 0
-145 39 -252 124 -341 68 -71 119 -98 216 -113 135 -21 247 13 354 106 28 25
54 45 57 45 4 0 9 -19 13 -42 4 -22 31 -92 61 -155 l54 -115 -24 -49 c-14 -27
-29 -49 -34 -49 -4 0 -41 36 -80 80 -97 107 -132 126 -246 135 -215 16 -440
58 -553 103 l-67 27 -7 85 c-4 47 -19 146 -33 220 -14 74 -29 149 -32 165 -4
26 2 37 41 76 25 26 46 51 46 58 0 21 -25 11 -45 -18 -39 -59 -99 -66 -167
-21 -94 62 -104 180 -21 231 33 21 65 22 121 4 38 -12 25 15 -15 32 -30 12
-46 13 -78 5 -22 -6 -43 -8 -47 -6 -13 8 -47 136 -54 204 l-7 65 81 -78 c45
-43 86 -76 92 -72 15 9 3 25 -82 105 -94 87 -113 89 -113 11 1 -47 -1 -51 -13
-34 -37 49 -158 264 -203 360 -114 244 -126 343 -58 501 l21 47 14 -27 c14
-28 34 -38 34 -18 0 6 -6 26 -14 44 -13 32 -13 37 11 73 26 39 113 133 123
133 3 0 11 -13 17 -30 13 -35 39 -42 29 -7 -3 12 -9 32 -12 44 -5 17 3 28 35
51 50 37 183 105 235 122 144 46 341 49 462 7z m2021 -97 c46 -27 63 -68 63
-145 0 -98 -31 -145 -94 -145 -22 0 -31 10 -56 63 -16 34 -33 69 -38 77 -46
78 -51 138 -14 160 29 16 105 11 139 -10z m177 -79 c9 -10 22 -45 28 -79 10
-55 9 -63 -13 -108 -27 -55 -53 -66 -89 -36 -17 14 -23 27 -21 50 2 18 4 68 5
112 l1 80 36 0 c22 0 42 -7 53 -19z m-511 -21 c-16 -28 -21 -30 -82 -30 l-65
0 21 21 c21 22 66 36 116 38 l28 1 -18 -30z m147 8 c19 -21 21 -30 15 -105 -7
-76 -6 -84 16 -115 22 -30 24 -43 22 -128 -1 -52 -3 -106 -5 -120 -4 -37 15
-37 26 0 l9 31 37 -40 c34 -36 38 -47 49 -133 16 -123 65 -363 94 -463 23 -81
23 -82 11 -311 -7 -127 -17 -267 -24 -310 -11 -76 -69 -366 -74 -371 -1 -1
-25 13 -54 33 -58 39 -91 53 -109 47 -6 -2 -37 -47 -69 -99 -34 -56 -63 -94
-73 -94 -9 0 -62 9 -119 20 -126 24 -195 26 -216 4 -10 -10 -16 -33 -16 -66 0
-50 0 -50 -22 -34 -57 40 -264 176 -273 180 -5 2 17 32 51 67 79 84 135 168
195 293 98 207 123 319 144 661 18 284 38 469 61 545 9 30 37 95 62 145 25 49
60 134 78 187 36 105 57 153 82 181 22 25 76 22 102 -5z m-438 -4 l38 -7 -25
-29 c-31 -37 -34 -97 -6 -122 11 -10 23 -31 26 -47 9 -39 42 -79 67 -79 11 0
18 -3 16 -7 -2 -5 -16 -33 -32 -63 -16 -30 -37 -79 -48 -110 -20 -59 -48 -268
-48 -361 l0 -56 -167 -12 c-143 -10 -295 -31 -418 -56 -29 -6 -31 -5 -33 26
-2 19 -11 47 -20 64 -17 29 -17 32 5 85 15 38 22 76 23 122 0 38 5 70 11 74
29 17 52 100 53 184 0 107 -15 151 -71 211 -40 43 -43 48 -26 57 46 24 349
101 399 102 14 0 26 -12 37 -35 27 -56 42 -54 100 9 55 58 58 60 119 50z m254
-81 c-4 -8 -9 -26 -12 -40 -7 -26 -4 -26 -122 -6 -36 6 -52 27 -33 46 13 13
101 24 144 18 20 -2 27 -8 23 -18z m269 -76 c26 -55 34 -62 62 -65 17 -2 46 4
63 13 30 15 31 15 54 -11 16 -20 33 -28 59 -28 32 -1 36 -4 42 -32 5 -32 26
-56 57 -67 21 -7 67 -151 138 -432 56 -223 142 -450 229 -606 137 -247 332
-463 540 -598 35 -22 72 -54 82 -70 18 -30 78 -57 104 -47 11 4 15 -2 15 -19
0 -13 11 -37 24 -52 21 -24 32 -28 78 -29 42 0 60 -6 76 -22 33 -33 96 -46
134 -28 29 15 32 14 60 -9 39 -33 90 -33 123 0 14 13 25 31 25 40 0 13 5 15
23 8 30 -11 97 -7 110 6 7 7 59 11 137 11 157 0 321 16 418 41 160 41 374 168
627 372 172 139 239 206 305 303 33 48 81 103 118 134 43 35 70 67 83 96 20
47 63 94 85 94 11 0 14 -22 14 -94 0 -54 4 -98 10 -101 25 -16 119 32 237 121
69 52 129 91 134 88 31 -19 -4 -67 -104 -144 -45 -35 -65 -56 -58 -63 13 -13
160 101 184 143 21 34 40 35 45 2 5 -35 -24 -78 -109 -154 -45 -40 -100 -90
-123 -110 -22 -20 -38 -39 -34 -43 10 -10 26 2 132 93 91 78 96 81 96 55 0
-74 -84 -184 -199 -262 -86 -58 -113 -70 -245 -104 l-123 -32 -96 -105 c-52
-58 -180 -191 -284 -296 -237 -240 -327 -302 -555 -388 -117 -43 -502 -144
-612 -160 -51 -7 -81 -16 -84 -25 -4 -11 6 -13 54 -7 l59 7 -27 -26 c-43 -39
-109 -49 -251 -35 -176 16 -402 66 -609 134 -94 31 -278 122 -278 137 0 33 77
146 172 253 59 66 108 124 108 129 0 4 -6 7 -13 7 -21 0 -238 -251 -259 -301
-2 -3 -20 -9 -40 -12 l-37 -6 -118 157 c-256 337 -337 460 -437 661 -138 275
-245 627 -300 984 l-24 158 -45 47 c-42 46 -44 51 -50 125 -4 52 -12 89 -26
113 -13 22 -21 53 -21 81 0 55 5 51 45 -30z m410 27 c26 -40 17 -150 -14 -175
-13 -11 -29 -19 -37 -19 -24 0 -54 38 -54 68 1 26 28 115 43 140 13 20 44 14
62 -14z m410 -20 c23 -9 48 -64 91 -201 29 -95 41 -123 54 -123 22 0 32 14 54
73 l18 49 26 -36 c40 -57 53 -49 68 39 13 79 30 89 103 59 28 -11 40 -22 44
-42 3 -15 8 -34 12 -43 4 -12 -4 -22 -27 -36 -36 -21 -58 -71 -58 -130 0 -28
44 -102 70 -118 8 -5 -1 -18 -24 -37 -20 -17 -46 -48 -57 -71 -26 -49 -37
-179 -21 -227 10 -27 9 -31 -3 -27 -7 3 -94 29 -191 57 -182 52 -271 69 -359
70 -90 1 -89 0 -115 113 -13 56 -45 175 -72 265 l-48 162 32 29 c27 24 32 36
36 89 l4 61 72 11 c39 7 76 14 81 15 19 6 193 5 210 -1z m-1199 -15 c3 -6 0
-15 -7 -20 -22 -14 -29 -11 -29 11 0 21 24 27 36 9z m-952 -238 c103 -51 159
-136 159 -246 1 -35 -7 -80 -18 -108 -16 -41 -21 -48 -39 -42 -52 15 -97 16
-147 2 -30 -8 -81 -20 -114 -27 -33 -6 -67 -13 -76 -16 -14 -4 -17 7 -21 64
-6 82 -39 161 -93 221 l-37 41 31 49 c52 80 102 102 218 97 57 -2 86 -10 137
-35z m-470 -104 c127 -59 186 -152 186 -292 0 -56 -5 -82 -25 -121 -62 -124
-150 -184 -271 -184 -153 0 -257 58 -310 172 -25 55 -29 75 -29 153 0 50 6
107 14 129 27 77 119 151 218 176 60 15 139 3 217 -33z m3380 -32 c59 -18 157
-19 202 -3 29 10 35 9 62 -14 17 -14 52 -36 77 -48 46 -22 60 -23 169 -8 14 2
22 -8 32 -44 15 -51 42 -75 112 -103 l41 -17 -6 -59 c-4 -45 -2 -69 11 -97
l17 -38 -31 -52 c-37 -58 -48 -124 -31 -174 6 -18 8 -34 3 -36 -5 -1 -18 -9
-28 -17 -32 -23 -9 -27 44 -9 49 18 51 18 71 0 31 -28 45 -89 31 -132 -19 -57
-91 -90 -140 -64 -28 15 -36 -5 -49 -121 -6 -58 -23 -152 -36 -208 -14 -56
-25 -126 -25 -156 0 -72 -7 -86 -35 -79 -31 8 -94 -23 -108 -53 -7 -16 -15
-22 -26 -17 -41 19 -93 16 -122 -5 l-30 -22 -31 26 c-26 22 -40 26 -79 24 -39
-2 -54 2 -72 19 -13 13 -40 25 -60 29 -32 5 -37 10 -43 39 -3 19 -10 37 -15
40 -5 3 -9 28 -9 55 0 46 2 50 22 47 42 -6 26 18 -28 41 -58 25 -90 60 -80 86
8 21 43 19 56 -4 18 -35 75 -46 220 -45 74 1 164 7 199 13 169 28 263 135 181
205 -39 32 -59 34 -400 40 -303 6 -366 13 -515 62 -124 41 -183 72 -200 104
-32 62 -17 88 56 95 60 5 126 26 176 55 l33 19 17 -26 c23 -35 127 -83 181
-83 61 0 50 23 -14 31 -58 7 -129 41 -144 68 -17 33 -11 66 18 93 44 41 65 43
198 12 l123 -28 17 -39 c50 -110 226 -174 366 -133 73 21 147 87 178 158 18
42 23 70 22 134 -1 78 1 83 29 110 16 15 29 31 29 36 0 16 -24 8 -50 -17 l-26
-25 -27 41 -27 41 25 20 c24 19 34 48 17 48 -5 0 -17 -9 -27 -20 -22 -24 -48
-26 -66 -4 -7 8 -26 22 -42 30 -16 9 -27 21 -24 27 17 46 18 57 4 57 -8 0 -20
-13 -27 -30 -12 -29 -14 -30 -86 -30 l-73 0 -3 32 c-5 51 -28 48 -28 -4 0 -39
-3 -45 -35 -62 l-34 -19 -43 39 c-24 21 -42 43 -40 47 1 5 14 24 27 42 14 17
25 37 25 43 0 24 -20 11 -51 -33 -18 -25 -34 -45 -36 -45 -2 0 -24 5 -49 11
-43 11 -44 12 -44 52 0 26 6 44 18 53 22 17 27 17 86 -1z m-134 -50 c0 -29 -3
-33 -32 -38 -18 -2 -34 -4 -36 -2 -1 1 0 20 4 42 6 37 8 39 35 35 25 -4 29 -9
29 -37z m88 -86 c24 -7 63 -30 88 -52 l45 -40 -25 -26 c-44 -46 -70 -118 -71
-198 0 -58 -3 -73 -15 -73 -8 0 -61 11 -118 25 -85 21 -109 24 -142 15 -21 -6
-42 -15 -45 -20 -21 -35 -55 47 -55 133 0 120 36 183 133 232 57 29 119 30
205 4z m450 -71 c43 -20 95 -76 128 -138 28 -52 26 -171 -3 -226 -69 -131
-231 -183 -369 -120 -109 50 -143 104 -144 226 0 116 52 208 145 257 69 37
166 37 243 1z m-2482 -319 c-8 -189 -26 -312 -60 -432 -59 -199 -197 -435
-313 -532 -30 -24 -36 -26 -68 -15 -47 16 -72 8 -123 -36 l-43 -36 -44 41
c-25 23 -65 51 -89 63 -42 20 -46 26 -56 75 -10 45 -18 59 -51 82 -21 16 -55
32 -74 35 -49 10 -62 37 -40 86 15 34 22 39 63 45 26 4 58 13 72 20 18 9 46
12 88 8 l62 -6 40 42 c22 23 40 50 40 60 0 14 19 25 76 46 91 33 146 81 164
142 17 56 2 93 -59 137 -25 19 -76 66 -112 105 -41 43 -82 77 -108 87 -45 18
-47 22 -28 47 20 28 250 66 522 86 61 5 119 9 129 10 18 1 19 -6 12 -160z
m1243 130 c74 -12 441 -115 454 -128 18 -18 -4 -72 -36 -92 -42 -26 -151 -59
-192 -59 -49 0 -63 -8 -75 -45 -17 -50 15 -117 67 -143 89 -46 253 -94 396
-117 30 -5 41 -13 56 -43 11 -21 22 -54 26 -73 7 -35 6 -36 -23 -31 -24 3 -34
-1 -46 -20 -22 -34 -5 -81 40 -109 31 -19 34 -25 34 -69 l0 -47 -45 -6 c-47
-5 -85 -29 -85 -54 0 -22 -19 -15 -95 37 -183 127 -369 339 -494 563 -61 111
-181 403 -181 443 0 12 12 14 68 9 37 -3 96 -11 131 -16z m2051 -127 c39 -27
71 -41 82 -38 13 3 35 -10 66 -37 65 -58 163 -132 185 -140 16 -6 10 -14 -36
-52 -104 -85 -155 -165 -114 -181 7 -2 38 2 68 9 l54 14 3 -28 c4 -37 19 -37
108 -3 56 21 80 25 127 21 54 -5 107 -27 107 -46 0 -9 -219 -186 -365 -296
-108 -81 -248 -164 -342 -204 -72 -31 -212 -76 -217 -70 -103 139 -207 251
-289 314 l-39 29 49 24 c71 35 111 78 130 139 15 47 23 57 84 98 96 63 104 79
104 195 l1 95 41 53 c48 60 63 103 63 180 l0 54 33 -44 c18 -24 61 -62 97 -86z
m-5508 -24 c26 -45 46 -83 44 -85 -1 -2 -30 9 -65 24 -82 35 -89 27 -56 -66
46 -126 85 -205 96 -194 7 7 -5 47 -36 122 -26 62 -44 115 -42 118 3 2 37 -12
76 -31 61 -31 74 -43 96 -85 21 -42 22 -51 10 -61 -26 -21 -48 -96 -41 -137
19 -100 84 -173 158 -173 49 0 68 -21 68 -77 0 -40 -6 -52 -49 -102 -157 -183
-313 -441 -366 -608 l-16 -53 -72 -20 c-199 -58 -297 -115 -297 -174 0 -28 -9
-36 -102 -96 -76 -49 -128 -94 -213 -182 -62 -65 -116 -118 -119 -118 -3 0 -6
6 -6 13 0 7 -18 69 -41 137 -48 146 -47 150 38 208 90 61 140 83 216 96 66 11
71 13 79 41 4 17 19 51 33 77 15 27 23 52 20 58 -10 16 -56 11 -101 -9 l-40
-18 14 51 c10 37 11 73 6 131 -4 44 -8 106 -8 137 -1 51 2 60 33 91 32 33 33
38 30 99 l-4 63 88 42 c97 47 111 71 56 93 -38 16 -32 20 88 61 102 34 116 44
102 70 -15 29 -60 48 -133 55 -36 4 -66 9 -66 12 0 3 25 31 55 63 58 61 94
126 95 170 0 14 10 35 23 47 26 24 68 112 89 182 12 43 16 46 88 77 112 49
117 48 172 -49z m1576 12 c2 0 48 -42 101 -92 53 -51 112 -105 130 -121 29
-24 33 -32 28 -62 -13 -83 -80 -127 -267 -178 -144 -40 -248 -49 -536 -45
-287 3 -302 1 -332 -57 -56 -108 -12 -235 101 -289 121 -58 467 -57 467 1 0
10 -6 14 -18 11 -22 -6 -35 4 -79 55 -38 44 -41 72 -13 127 17 34 25 40 51 40
26 0 30 -3 24 -17 -37 -92 -27 -117 63 -151 67 -26 86 -46 96 -103 6 -35 5
-37 -38 -53 -25 -10 -77 -46 -116 -81 -95 -85 -155 -109 -275 -109 -77 1 -99
5 -153 29 -127 57 -209 189 -220 352 -11 172 47 313 178 436 128 119 211 163
418 217 197 52 309 87 317 100 3 5 20 4 38 -1 17 -5 33 -9 35 -9z m1509 -530
c77 -167 194 -348 416 -644 82 -110 151 -205 154 -212 2 -6 -7 -28 -21 -48
-39 -58 -66 -141 -66 -204 0 -99 58 -307 131 -469 l29 -65 -26 -72 c-14 -39
-34 -107 -43 -150 l-17 -80 -100 -42 c-127 -54 -134 -59 -134 -90 0 -29 76
-152 126 -205 l35 -36 -36 -74 c-43 -91 -94 -284 -139 -532 -19 -104 -37 -191
-39 -194 -3 -3 -27 10 -52 27 -47 32 -47 33 -41 79 12 94 -27 226 -89 299 -26
31 -27 38 -29 150 -2 138 -14 174 -100 310 -71 114 -72 126 -3 146 73 22 210
102 274 160 47 43 76 81 136 177 14 24 20 26 62 22 34 -4 50 -1 65 12 21 19
17 38 -14 73 l-20 23 27 25 c23 22 26 28 15 41 -9 11 -24 14 -60 10 -48 -6
-48 -6 -42 21 3 15 8 33 10 41 9 29 -47 57 -70 34 -4 -5 -24 -8 -44 -8 -30 0
-39 -5 -51 -29 -7 -17 -16 -50 -19 -75 -6 -52 -35 -94 -91 -128 -51 -32 -61
-30 -61 16 0 22 -5 52 -10 67 -9 22 -6 34 14 68 34 59 39 102 18 161 -17 50
-17 50 7 88 14 21 26 59 29 86 4 47 6 50 48 66 25 10 44 23 44 32 0 8 -6 13
-12 10 -7 -3 -29 -12 -49 -21 -37 -15 -37 -15 -43 10 -6 21 5 35 74 103 66 64
80 83 80 109 0 37 -20 54 -120 102 l-73 35 7 127 c7 126 7 127 -17 142 -21 14
-39 15 -149 4 -112 -10 -129 -10 -151 5 l-25 16 25 118 c51 251 71 426 83 718
0 6 27 -57 59 -140 32 -82 72 -179 88 -215z m1215 20 c9 -30 17 -77 17 -104
l1 -49 -50 7 c-75 10 -78 12 -85 69 -4 29 -15 71 -26 95 l-18 43 72 -3 71 -3
18 -55z m196 -37 c7 -53 10 -98 7 -101 -2 -3 -38 -7 -80 -10 l-75 -5 0 34 c0
19 -7 59 -15 89 -24 89 -25 87 85 89 l66 1 12 -97z m120 89 c7 -5 15 -41 19
-90 7 -89 9 -85 -58 -96 -43 -8 -46 -2 -56 117 l-6 77 44 0 c24 0 50 -4 57 -8z
m107 -16 c29 -12 35 -20 35 -44 0 -32 -20 -61 -61 -86 -26 -16 -26 -16 -33 15
-3 17 -6 53 -6 80 0 55 7 59 65 35z m-3142 -37 c-24 -43 -73 -63 -120 -50 -29
8 -44 6 -81 -11 -41 -18 -57 -19 -141 -14 -57 4 -114 3 -141 -3 -32 -8 -67 -7
-121 1 -55 8 -92 8 -130 1 -62 -13 -99 -3 -99 26 0 35 35 44 164 40 266 -8
487 -1 576 19 118 27 114 27 93 -9z m-1210 -282 c22 -122 22 -123 -13 -135
-68 -24 -93 -75 -141 -289 -20 -89 -21 -108 -10 -138 9 -27 10 -43 1 -69 l-11
-34 -82 5 c-52 3 -107 -1 -150 -10 l-69 -15 7 37 c21 114 134 342 244 492 71
96 194 248 202 249 3 0 13 -42 22 -93z m4571 34 c78 -63 117 -103 210 -221
l76 -95 -43 -7 c-68 -11 -337 -9 -337 2 0 6 13 10 30 10 38 0 65 39 65 96 0
54 -26 84 -72 84 -22 0 -33 5 -33 15 0 22 32 165 38 165 2 0 32 -22 66 -49z
m1575 -256 c126 -129 219 -252 266 -350 35 -73 55 -165 36 -165 -6 0 -11 6
-11 13 0 17 -36 50 -78 72 -39 19 -92 14 -157 -14 -24 -11 -92 -69 -167 -143
-134 -132 -167 -181 -168 -250 0 -32 3 -38 20 -38 12 0 35 7 52 16 32 17 88
35 88 29 0 -1 -9 -33 -21 -70 -24 -77 -15 -101 33 -91 36 7 162 -25 230 -60
29 -14 84 -47 122 -72 l69 -46 -73 -35 c-104 -50 -103 -45 -97 -360 3 -141 8
-273 12 -293 l7 -37 -63 -3 c-63 -3 -64 -4 -74 -36 -9 -31 -11 -32 -55 -30
l-45 3 4 -114 c3 -107 2 -113 -15 -107 -91 28 -299 34 -463 12 -64 -8 -94 -9
-96 -1 -2 5 -6 114 -8 240 -6 265 -17 339 -83 570 -62 213 -215 665 -259 761
-19 42 -35 82 -35 89 0 7 21 20 48 30 83 31 215 101 292 156 47 32 162 140
304 286 l229 233 24 -42 c14 -24 73 -92 132 -153z m-3744 9 l99 -67 127 13
c70 7 133 9 139 5 9 -6 10 -40 5 -136 l-7 -128 83 -41 c142 -71 142 -76 33
-179 l-73 -70 -31 17 c-28 16 -30 20 -24 60 8 52 -10 57 -26 6 -10 -30 -16
-35 -34 -30 -11 3 -36 6 -53 6 -28 0 -35 5 -47 35 -27 63 -45 37 -21 -27 4 -9
-9 -24 -33 -41 l-40 -26 -22 24 c-13 14 -32 27 -42 31 -15 4 -19 13 -16 41 4
45 -17 55 -25 13 -6 -28 -10 -30 -49 -30 -24 0 -53 -3 -65 -6 -18 -5 -23 -2
-23 12 0 26 -16 48 -28 40 -7 -4 -7 -17 -2 -36 7 -26 5 -32 -25 -54 -19 -14
-37 -35 -40 -46 -8 -25 -27 -25 -50 0 -18 20 -35 26 -35 12 0 -4 14 -22 30
-40 27 -30 30 -40 30 -100 0 -92 21 -129 94 -166 79 -41 158 -46 221 -16 26
12 49 29 52 36 7 20 176 20 192 0 27 -33 -13 -60 -108 -73 -55 -8 -84 -33 -39
-33 86 0 178 39 178 75 0 8 9 19 20 25 23 12 36 -6 46 -67 5 -30 1 -50 -16
-84 -12 -24 -24 -46 -26 -48 -1 -2 -16 6 -32 18 -21 15 -45 21 -82 21 -88 0
-152 -45 -175 -124 -20 -67 -19 -94 6 -140 17 -31 18 -40 7 -47 -31 -20 -61
-6 -91 44 -20 31 -33 34 -59 10 -27 -24 -96 -22 -154 5 l-50 24 -1 76 c-1 77
-14 130 -36 144 -7 4 -29 8 -49 8 -41 0 -58 19 -58 66 0 54 53 82 96 49 25
-19 34 -19 34 1 0 20 -65 47 -93 38 -62 -18 -84 -81 -52 -143 16 -33 33 -41
80 -41 27 0 34 -5 39 -26 4 -15 6 -28 4 -29 -12 -12 -221 -94 -228 -90 -17 11
-30 80 -30 167 0 108 -3 111 -145 128 -133 15 -145 19 -145 40 0 10 36 66 80
125 44 59 80 113 80 121 0 24 -19 54 -72 115 -26 30 -48 63 -48 72 0 21 39 41
110 57 74 17 127 39 133 54 3 7 0 62 -6 122 -6 61 -8 118 -4 127 9 23 65 22
197 -3 58 -11 115 -20 127 -20 23 0 27 4 107 133 20 31 41 57 48 57 7 0 58
-30 113 -66z m-2375 11 c0 -25 -3 -45 -7 -45 -15 0 -73 40 -73 50 0 10 48 39
68 40 8 0 12 -15 12 -45z m1081 23 c45 -25 45 -8 2 -190 -13 -60 -27 -108 -29
-108 -9 0 -86 175 -100 225 -18 66 -18 70 9 83 35 17 76 14 118 -10z m331 -39
c56 -21 248 -147 309 -202 30 -26 38 -41 43 -84 7 -58 14 -54 -124 -88 -79
-20 -120 -48 -120 -80 0 -15 23 -52 60 -96 33 -39 60 -78 60 -87 0 -14 -102
-156 -120 -167 -5 -3 -30 32 -56 77 -64 112 -110 179 -183 266 l-61 72 33 0
c61 0 68 26 42 152 -9 40 -27 98 -41 128 l-25 55 40 37 c47 44 68 47 143 17z
m-1327 -104 c119 -50 475 -115 624 -115 33 0 33 0 28 -37 -3 -21 -9 -94 -12
-163 -8 -156 -10 -166 -36 -173 -53 -14 -392 40 -520 83 -106 35 -285 120
-316 150 -31 29 -30 72 8 216 17 65 32 121 35 126 3 4 28 -7 56 -23 28 -17 88
-46 133 -64z m1095 63 c16 -18 39 -51 50 -74 23 -47 63 -220 55 -235 -12 -19
-82 -9 -119 16 -67 45 -59 15 16 -59 97 -95 175 -199 253 -336 50 -88 62 -117
55 -131 -19 -34 -12 -60 19 -72 19 -7 36 -24 47 -50 13 -28 36 -50 84 -81 93
-61 138 -102 145 -136 7 -34 40 -61 62 -53 9 4 23 -4 35 -18 24 -30 61 -100
55 -105 -2 -2 -56 9 -121 25 -126 31 -153 47 -187 113 -27 53 -84 63 -91 17
-3 -19 -5 -18 -55 7 -46 24 -55 26 -82 14 -37 -15 -39 -33 -7 -75 l25 -32 -50
-6 c-61 -8 -69 -12 -69 -42 0 -37 28 -58 67 -52 l34 6 -26 -30 c-29 -36 -30
-38 -9 -67 18 -26 65 -29 104 -7 35 20 64 18 86 -6 44 -49 149 -98 291 -136
l143 -38 0 -32 c0 -25 -18 -53 -86 -135 -139 -168 -161 -236 -115 -357 14 -39
18 -66 14 -102 -5 -46 -8 -49 -41 -59 -36 -10 -52 -6 -52 12 0 5 -25 51 -56
100 -72 117 -84 153 -84 252 0 103 -29 170 -95 217 -40 29 -43 34 -47 87 -6
65 -25 86 -96 104 -44 11 -45 12 -92 112 -26 56 -81 187 -124 291 -42 105 -81
197 -86 205 -14 23 -43 0 -55 -43 l-10 -36 -23 39 c-30 54 -58 53 -80 0 -9
-22 -21 -40 -26 -40 -4 0 -22 11 -38 25 -16 14 -34 23 -39 19 -5 -3 -19 -24
-30 -47 -12 -23 -23 -44 -25 -45 -1 -2 -26 9 -54 24 -64 35 -79 28 -100 -50
l-15 -56 -30 29 c-63 61 -105 45 -105 -40 0 -27 -2 -49 -4 -49 -2 0 -23 7 -46
15 -23 8 -46 15 -51 15 -19 0 -39 -35 -39 -69 l0 -38 -62 1 -63 1 -3 -62 -3
-62 -52 -3 -52 -3 2 -46 2 -45 -52 -10 c-37 -6 -53 -14 -55 -27 -2 -10 33 -63
86 -130 119 -150 331 -473 446 -680 l38 -67 -31 -35 c-24 -28 -31 -45 -31 -77
l0 -41 -77 6 c-232 18 -567 117 -872 257 l-126 58 1 78 c3 136 88 513 148 647
l24 56 34 -11 c42 -13 80 5 238 109 136 90 218 166 285 268 80 120 109 200
109 305 -1 189 -101 309 -315 375 -56 18 -57 18 -47 46 5 16 14 29 19 29 5 0
49 -20 97 -44 185 -92 290 -124 517 -156 181 -25 226 -25 256 -2 21 18 23 29
30 182 5 102 12 167 19 174 9 8 33 -12 99 -81 117 -124 128 -124 181 -10 22
47 50 134 66 205 16 67 30 122 31 122 1 0 16 -15 33 -32z m2160 -358 c0 -5 -4
-10 -10 -10 -5 0 -10 5 -10 10 0 6 5 10 10 10 6 0 10 -4 10 -10z m-27 -44 c35
-37 205 -121 326 -160 325 -105 650 -159 804 -133 47 8 47 8 47 -20 0 -15 -9
-53 -21 -83 -12 -30 -29 -95 -38 -145 -17 -87 -18 -90 -47 -93 -24 -3 -116
-25 -291 -69 -16 -4 -25 2 -36 24 -19 36 -163 162 -194 169 -42 11 -67 -6
-143 -92 -41 -48 -91 -104 -110 -126 l-35 -40 -104 26 c-58 14 -108 29 -112
33 -20 20 -103 239 -131 343 -46 178 -40 264 28 368 18 28 30 28 57 -2z
m-3504 -37 c164 -37 287 -120 331 -221 34 -77 38 -178 12 -265 -43 -140 -166
-297 -313 -400 -106 -74 -228 -143 -253 -143 -53 0 -194 195 -269 371 -60 141
-85 228 -102 357 -23 171 -28 157 68 203 69 33 214 84 292 102 38 9 190 6 234
-4z m5297 -151 c55 -131 196 -549 254 -754 52 -181 69 -279 75 -434 3 -69 8
-180 10 -247 l5 -123 -32 -13 c-49 -21 -69 -49 -99 -139 -25 -73 -31 -83 -69
-104 l-41 -23 7 45 c8 56 -12 84 -62 84 -39 0 -49 -13 -89 -118 -39 -100 -80
-144 -184 -196 -47 -24 -103 -51 -123 -59 l-37 -16 -31 54 c-29 50 -90 190
-90 205 0 4 17 12 39 18 64 20 66 28 46 145 -32 184 -41 156 72 230 113 74
127 88 119 115 -9 27 -102 132 -147 165 -38 28 -38 29 -25 60 7 18 32 66 55
107 48 84 59 123 42 144 -7 8 -68 33 -136 56 -68 23 -128 47 -133 53 -5 7 -22
64 -37 127 -15 63 -34 125 -42 138 -12 20 -12 35 3 115 9 51 28 121 41 156 17
46 22 75 18 101 -6 33 -3 40 29 68 20 17 53 36 73 42 82 24 409 108 425 109
12 1 29 -30 64 -111z m-2717 67 c40 -20 107 -99 114 -134 7 -33 -16 -121 -40
-158 -38 -58 -148 -71 -240 -29 -66 31 -83 62 -83 156 0 80 15 118 58 148 44
32 146 41 191 17z m271 -10 c97 -24 130 -62 130 -147 0 -91 -58 -156 -115
-130 -14 7 -59 12 -100 12 l-74 0 14 41 c20 57 19 108 -4 146 -19 30 -19 32
-1 48 23 21 90 45 110 40 8 -2 26 -6 40 -10z m-3450 -343 c40 -168 134 -371
229 -492 l49 -64 -51 -34 c-70 -46 -135 -109 -157 -153 -72 -139 -106 -601
-61 -829 44 -219 39 -283 -25 -340 -75 -65 -205 -110 -260 -90 l-26 10 40 30
c45 32 56 46 44 54 -4 2 -31 -11 -58 -30 -32 -23 -68 -38 -100 -42 -58 -9
-183 3 -198 18 -7 7 -6 10 5 10 20 0 89 58 89 76 0 19 -26 18 -34 -1 -19 -51
-150 -74 -212 -36 -47 29 -79 104 -75 178 1 22 63 93 81 93 18 0 11 -84 -10
-118 -24 -39 -24 -42 -5 -42 22 0 55 60 55 100 0 19 -7 67 -15 105 -18 85 -7
163 32 243 30 59 31 28 -13 347 -20 144 -14 313 16 454 28 137 97 271 199 386
99 113 292 294 368 345 l58 39 8 -67 c4 -37 16 -104 27 -150z m2467 -43 c43
-6 84 -15 91 -21 7 -7 12 -36 12 -79 l0 -68 -93 64 c-51 35 -98 75 -105 89
-14 31 -16 31 95 15z m2204 -37 c62 -42 133 -110 151 -145 23 -46 18 -46 203
2 130 33 177 38 193 19 6 -7 24 -69 41 -138 22 -89 37 -130 52 -143 12 -9 73
-33 136 -53 70 -22 117 -42 121 -52 3 -9 -18 -60 -51 -123 -31 -59 -57 -118
-57 -133 0 -18 10 -32 38 -51 43 -29 144 -145 139 -160 -2 -5 -50 -42 -108
-80 -57 -39 -105 -78 -107 -88 -2 -9 6 -62 17 -118 27 -133 27 -147 -4 -159
-14 -5 -80 -19 -148 -30 -67 -12 -126 -25 -132 -31 -5 -5 -9 -30 -10 -57 -2
-106 -6 -148 -15 -162 -8 -13 -12 -13 -37 1 -15 9 -58 26 -95 39 -78 25 -78
25 -52 141 14 62 18 69 40 69 42 0 93 27 104 55 27 70 -2 152 -64 181 -40 20
-126 12 -126 -11 0 -10 12 -12 54 -8 51 5 57 4 85 -25 26 -25 31 -39 31 -76 0
-60 -24 -86 -81 -86 -22 0 -50 5 -61 11 -14 8 -23 8 -31 0 -7 -7 -2 -14 15
-21 l25 -12 -19 -71 c-13 -50 -18 -102 -17 -167 2 -131 -4 -147 -51 -155 -21
-3 -47 -17 -59 -29 -18 -19 -29 -22 -70 -18 -31 3 -58 -1 -77 -11 -27 -14 -31
-14 -53 4 -25 21 -105 27 -116 9 -4 -7 -17 0 -33 17 -18 20 -25 37 -23 59 3
37 -20 64 -54 64 -43 0 -55 10 -55 47 0 38 11 64 46 106 15 18 24 42 24 63 0
27 4 34 19 34 11 0 26 3 35 6 13 5 16 -3 16 -46 0 -63 -24 -120 -51 -120 -30
0 -22 -28 9 -35 38 -8 244 12 293 29 50 18 111 59 149 103 57 64 30 163 -44
163 -17 0 -52 -7 -79 -15 -162 -49 -477 -69 -642 -40 -102 18 -150 38 -172 72
-14 21 -14 28 -2 52 19 37 169 178 169 159 0 -50 93 -107 173 -108 70 0 56 23
-17 31 -63 7 -104 31 -124 72 -29 60 30 98 164 105 l91 5 33 -37 c71 -78 198
-113 301 -83 109 32 180 126 187 248 4 60 7 67 33 83 30 18 38 36 16 36 -7 0
-22 -6 -33 -14 -18 -13 -21 -11 -45 35 -26 47 -26 49 -8 65 19 17 26 44 12 44
-4 0 -17 -9 -29 -21 l-22 -21 -46 31 c-24 17 -50 31 -56 31 -8 0 -10 9 -5 27
11 44 11 45 -2 50 -6 2 -16 -12 -23 -32 -7 -22 -17 -34 -25 -31 -11 4 -71 -6
-117 -20 -13 -4 -17 2 -20 27 -5 52 -28 49 -28 -4 0 -40 -3 -46 -30 -57 -16
-7 -34 -18 -40 -25 -8 -10 -20 -7 -59 13 l-48 26 13 33 c27 63 6 76 -24 16
-19 -37 -20 -37 -86 -38 -66 -2 -67 -2 -73 27 -3 15 -10 28 -15 28 -15 0 -19
-25 -9 -53 6 -16 7 -27 1 -27 -5 0 -25 -14 -45 -31 -29 -26 -38 -29 -50 -19
-8 7 -15 19 -15 26 0 8 -7 14 -15 14 -21 0 -19 -22 4 -51 16 -21 17 -28 6 -49
l-13 -24 -32 35 c-36 39 -99 128 -123 175 -20 40 -19 41 98 89 125 51 135 58
135 100 0 35 55 223 70 238 4 5 58 -4 120 -19 l113 -27 36 39 c20 22 73 82
119 132 46 51 91 92 100 92 9 0 29 -8 43 -18z m-892 -83 c1 -28 26 -68 36 -57
3 3 1 24 -4 46 -13 47 -7 69 21 78 27 8 28 4 18 -40 -13 -59 -6 -68 49 -60 45
7 46 6 29 -13 -24 -27 -23 -42 8 -74 l26 -27 -22 -12 c-17 -9 -29 -9 -52 1
-29 12 -33 11 -54 -15 l-24 -27 -9 23 c-5 13 -26 46 -46 73 -39 55 -41 86 -7
150 l16 30 7 -25 c4 -14 7 -37 8 -51z m-2075 44 c3 -10 17 -31 31 -48 24 -29
25 -29 40 -11 8 11 15 30 15 42 0 58 24 19 95 -159 43 -105 99 -238 125 -294
47 -100 49 -102 91 -113 73 -19 89 -34 89 -83 l0 -42 -85 4 c-107 4 -157 -17
-211 -90 -24 -33 -42 -48 -53 -45 -52 14 -86 16 -137 7 -153 -29 -234 -120
-234 -264 0 -80 15 -120 64 -175 69 -76 185 -106 296 -78 84 22 126 55 159
127 24 53 29 58 66 65 22 3 64 19 94 35 78 42 120 38 146 -12 8 -15 15 -36 15
-46 0 -18 -70 -78 -143 -122 -25 -15 -35 -27 -29 -33 13 -13 40 1 125 65 76
58 87 80 64 137 -12 32 -13 41 -2 50 10 8 15 3 24 -21 6 -18 38 -77 72 -131
45 -74 60 -108 62 -140 1 -38 -3 -45 -51 -88 -61 -55 -231 -146 -347 -185 -95
-33 -231 -55 -337 -55 -82 0 -96 7 -76 39 16 25 3 40 -18 20 -17 -18 -45 -104
-37 -113 11 -11 21 -6 25 10 2 13 25 16 133 19 72 2 161 11 199 19 38 9 72 14
74 11 12 -11 -21 -57 -54 -77 -44 -26 -53 -48 -47 -114 6 -61 -8 -79 -89 -109
-42 -16 -78 -20 -178 -20 -114 0 -129 2 -174 25 -75 39 -85 58 -94 185 -7 91
-6 111 6 119 28 16 53 47 47 57 -4 5 -17 1 -32 -11 -52 -41 -149 -18 -173 40
-21 52 -15 92 20 123 33 30 54 33 111 15 22 -6 42 -8 47 -4 13 13 -30 36 -80
42 l-48 7 -57 96 c-161 276 -318 511 -462 693 -57 73 -56 75 14 80 l40 3 -2
48 -1 47 42 0 c55 0 66 13 66 77 l0 53 59 0 c65 0 71 6 71 66 0 39 1 39 65 18
46 -16 49 -16 62 1 7 11 13 40 13 67 0 26 4 48 10 48 5 0 28 -16 50 -36 39
-36 73 -42 77 -14 15 116 19 120 86 81 30 -17 57 -31 61 -31 4 0 16 21 27 47
11 26 22 49 24 52 3 2 21 -8 40 -23 20 -15 42 -26 49 -23 7 3 18 23 25 46 13
43 26 52 35 24z m1154 -181 c-3 -32 -12 -56 -26 -70 -14 -14 -22 -34 -22 -57
0 -30 -3 -35 -23 -35 -18 0 -28 10 -43 42 -10 23 -30 55 -42 70 l-24 28 59 25
c32 14 67 30 78 35 42 18 48 13 43 -38z m886 -1 c56 -81 45 -134 -48 -218 -89
-82 -295 -191 -309 -165 -3 4 -8 51 -11 105 l-7 97 38 0 c55 0 104 30 128 78
14 30 28 43 56 52 21 7 55 30 75 51 21 22 41 39 45 39 3 0 18 -17 33 -39z
m-1468 -27 c41 -20 54 -32 59 -55 11 -48 25 -33 25 26 0 62 12 70 36 23 9 -18
27 -44 39 -58 32 -34 23 -71 -31 -127 -36 -38 -45 -43 -62 -34 -28 15 -63 13
-86 -4 -23 -17 -72 -20 -82 -4 -3 6 8 26 26 44 47 49 36 69 -31 60 -46 -6 -51
-5 -47 11 2 10 10 20 18 21 104 13 116 26 76 74 -25 30 -27 49 -4 49 6 0 35
-12 64 -26z m677 -93 c61 -23 127 -21 148 5 9 11 15 8 33 -19 30 -44 66 -55
111 -34 32 15 39 16 64 2 28 -14 29 -18 36 -107 3 -51 8 -118 9 -149 2 -49 10
-69 63 -155 71 -115 93 -183 95 -288 0 -69 -3 -83 -41 -162 -47 -98 -46 -94
-27 -94 7 0 26 25 42 55 16 30 32 55 36 55 14 0 60 -69 78 -117 88 -232 -36
-455 -338 -607 -29 -15 -64 -31 -78 -36 -22 -9 -24 -8 -18 14 3 13 1 27 -4 30
-23 14 -36 -30 -44 -147 -10 -151 -17 -178 -51 -195 -57 -28 -127 21 -170 118
-15 34 -21 66 -20 126 0 70 4 90 31 145 64 130 68 248 14 333 -18 28 -32 63
-32 78 l0 29 31 -16 c17 -9 33 -14 36 -11 17 16 -17 37 -104 66 -119 39 -143
53 -143 83 0 24 -28 56 -67 76 -22 11 -63 118 -63 165 0 41 48 122 128 217 45
53 86 108 92 123 13 35 13 83 0 91 -6 4 -72 23 -148 44 -131 36 -184 57 -245
99 l-29 20 22 15 c29 20 80 97 80 120 0 9 2 17 4 17 3 0 61 -14 129 -30 103
-25 142 -30 218 -28 63 2 94 7 97 16 2 8 -10 12 -42 12 -51 0 -59 8 -50 45 8
31 23 31 117 -4z m-2691 -247 c-42 -107 -95 -312 -127 -502 -38 -218 -36 -227
50 -262 43 -17 57 -28 62 -49 12 -49 83 -180 129 -238 26 -32 83 -97 126 -144
l78 -87 0 -144 c0 -118 -6 -183 -34 -352 -19 -114 -36 -209 -38 -211 -2 -1
-28 -6 -59 -9 l-57 -7 -4 98 c-5 106 -21 152 -147 429 -27 61 -67 169 -86 240
-21 74 -49 149 -66 175 -18 29 -37 81 -51 145 -40 180 -22 592 34 772 23 75
70 132 160 192 33 22 61 40 63 40 1 0 -13 -39 -33 -86z m4468 -115 c121 -61
169 -207 107 -325 -31 -60 -82 -106 -136 -123 -115 -34 -253 15 -300 107 -19
36 -25 144 -11 201 15 63 40 95 93 123 95 48 175 54 247 17z m-436 -13 c26 -8
58 -21 71 -30 24 -16 24 -16 8 -58 -16 -44 -22 -163 -10 -209 l7 -26 -93 0
c-84 1 -99 -2 -143 -27 -56 -31 -57 -31 -100 59 -56 117 -13 226 111 285 48
23 86 25 149 6z m-2084 -73 c82 -33 124 -105 124 -210 -1 -96 -14 -111 -93
-111 -45 0 -70 -7 -116 -31 -32 -17 -68 -31 -81 -31 -21 0 -24 5 -24 38 0 76
-27 137 -80 185 -28 25 -50 49 -50 55 0 16 59 91 82 103 55 30 167 31 238 2z
m1816 -261 l38 -74 -91 -88 c-55 -54 -92 -98 -95 -114 -8 -42 21 -88 72 -113
53 -27 213 -53 323 -53 l77 0 0 -31 c0 -19 -12 -45 -31 -69 -22 -27 -33 -53
-36 -87 -4 -35 -13 -56 -35 -79 -16 -17 -31 -47 -35 -67 l-5 -35 -42 13 c-50
15 -272 116 -338 153 -32 18 -48 34 -48 47 0 37 60 349 95 491 19 78 49 175
67 215 l33 74 7 -54 c3 -32 22 -85 44 -129z m-2140 112 c108 -72 138 -190 79
-309 -47 -93 -123 -132 -240 -122 -183 14 -286 188 -205 347 43 84 137 132
251 126 45 -2 66 -9 115 -42z m4983 -293 c57 -18 122 -41 145 -53 47 -23 106
-66 106 -76 0 -4 -25 -20 -55 -36 -69 -36 -165 -137 -165 -173 0 -14 5 -43 12
-64 9 -33 9 -42 -6 -58 -10 -10 -33 -22 -52 -25 -39 -8 -54 -30 -54 -80 0 -27
-9 -46 -37 -77 -35 -39 -38 -46 -38 -103 1 -75 11 -96 126 -259 50 -71 88
-132 85 -135 -4 -3 -76 0 -162 6 -187 14 -193 13 -283 -83 -59 -64 -63 -70
-57 -105 4 -23 0 -55 -9 -80 -19 -55 -19 -96 1 -158 20 -62 11 -93 -48 -155
-60 -61 -66 -74 -92 -194 -16 -72 -39 -139 -65 -191 -38 -76 -137 -218 -178
-255 -19 -17 -20 -16 -38 43 -20 67 -29 78 -71 85 -49 9 -56 -4 -65 -122 -11
-135 -11 -136 -48 -128 -40 9 -67 -8 -81 -50 -11 -33 -15 -35 -53 -35 -55 -1
-115 -29 -172 -81 -56 -51 -84 -98 -131 -216 -20 -48 -39 -92 -44 -96 -10 -11
-39 30 -80 113 -33 67 -85 130 -106 130 -17 0 -24 -24 -24 -86 0 -69 -10 -89
-58 -113 -21 -11 -51 -38 -67 -61 -33 -47 -52 -60 -93 -60 -15 0 -53 -7 -83
-16 -53 -16 -81 -39 -167 -136 -37 -43 -45 -43 -168 -2 -92 31 -122 30 -251
-7 -66 -19 -145 -34 -203 -39 -123 -9 -154 -24 -187 -96 -13 -30 -33 -59 -43
-64 -30 -16 -223 7 -368 44 -66 17 -336 40 -467 41 -84 0 -94 -2 -152 -34
l-61 -35 -57 47 c-49 40 -64 47 -101 47 -49 0 -49 -1 -129 110 -30 41 -71 87
-92 102 -30 23 -141 64 -263 97 -19 5 -26 15 -32 46 -22 129 79 417 157 451
25 10 43 10 102 -1 39 -7 182 -26 319 -42 396 -45 706 -35 1134 37 148 24 288
36 275 22 -30 -30 -141 -91 -194 -106 -62 -17 -81 -36 -36 -36 56 0 235 93
310 160 11 10 90 58 175 105 85 48 263 158 395 245 132 86 286 187 343 223
171 111 305 256 412 446 70 124 247 491 295 611 55 135 131 210 214 210 74 0
145 52 212 154 27 41 51 64 77 76 75 34 94 85 56 147 -8 12 -14 31 -14 41 0
23 -27 48 -66 62 -23 8 -40 7 -74 -5 -24 -8 -45 -13 -48 -10 -3 2 4 26 15 52
27 66 64 88 165 102 46 6 94 13 108 15 14 3 97 3 185 2 147 -3 168 -6 264 -35z
m-4207 -78 c9 -10 19 -34 23 -53 10 -46 22 -60 52 -60 29 0 63 -17 63 -31 0
-5 -16 -17 -35 -26 -19 -9 -35 -23 -35 -30 0 -17 9 -16 53 2 20 8 40 15 44 15
7 0 63 -85 63 -95 0 -3 -8 -5 -18 -5 -31 0 -57 -38 -151 -226 -125 -250 -257
-430 -358 -489 -23 -14 -44 -25 -47 -25 -3 0 -6 17 -6 38 0 72 -20 157 -54
228 l-34 72 68 46 c102 70 204 198 250 315 23 58 65 224 75 294 8 50 22 59 47
30z m3310 -124 c-4 -70 11 -79 71 -45 58 33 184 77 202 70 18 -7 20 -28 3 -42
-7 -5 -38 -15 -68 -21 -57 -12 -160 -64 -160 -81 0 -16 22 -12 58 10 18 11 37
20 42 20 14 0 -7 -61 -27 -75 -13 -10 -15 -17 -7 -24 15 -16 49 24 66 74 14
42 38 55 63 35 22 -18 19 -40 -15 -107 -58 -115 -136 -183 -210 -183 -49 0
-89 -22 -175 -95 -179 -153 -374 -258 -655 -354 -96 -33 -209 -72 -250 -87
-98 -35 -233 -37 -402 -5 -165 31 -208 45 -271 92 -54 40 -55 42 -37 58 23 19
54 131 40 145 -10 10 -21 -13 -39 -81 -10 -35 -17 -43 -47 -53 -20 -7 -54 -28
-75 -47 l-39 -35 -114 72 c-133 86 -223 156 -341 268 l-86 81 50 62 c28 34 60
86 72 115 l22 52 77 -48 c153 -96 415 -215 498 -226 49 -6 52 -8 52 -36 0 -21
11 -41 35 -65 33 -33 39 -35 79 -30 37 5 46 3 66 -18 29 -30 110 -51 139 -35
16 8 30 8 55 -1 46 -17 100 -4 129 31 22 25 29 28 65 23 61 -8 90 3 108 41 17
36 61 55 179 77 71 13 211 65 407 149 277 120 293 135 379 358 7 18 15 23 37
20 26 -3 27 -4 24 -59z m-5477 -54 c237 -90 440 -142 627 -161 51 -5 69 -11
73 -24 9 -28 58 -69 100 -83 39 -14 40 -14 52 -87 l12 -73 -30 -34 c-16 -19
-32 -48 -36 -64 -4 -23 -11 -29 -32 -29 -31 0 -145 -53 -225 -104 -69 -44 -87
-77 -79 -144 5 -47 3 -54 -28 -90 -107 -126 -155 -294 -119 -423 15 -53 82
-124 145 -154 43 -20 55 -31 55 -48 -1 -51 -14 -48 -96 19 -122 101 -199 180
-276 284 -39 52 -77 100 -85 106 -11 9 -7 47 23 220 30 179 35 231 35 362 l-1
153 -111 127 c-118 133 -167 202 -199 278 -11 25 -20 48 -20 50 0 2 17 -3 38
-12 20 -9 100 -40 177 -69z m2060 63 c-22 -72 -81 -219 -103 -258 -81 -143
-209 -257 -297 -265 -18 -1 -51 -13 -73 -25 l-40 -23 -31 34 c-20 23 -31 45
-31 66 0 27 7 37 45 63 37 25 46 38 51 70 6 36 10 40 63 61 100 40 225 106
289 153 57 42 78 71 96 129 3 9 13 17 21 17 12 0 15 -6 10 -22z m2834 -125
c18 -43 46 -102 63 -132 16 -29 26 -57 21 -61 -15 -15 -265 -111 -327 -125
-89 -21 -96 -20 -96 16 0 42 -47 89 -89 89 -30 0 -31 1 -31 46 0 52 -2 52 105
7 33 -14 73 -26 89 -27 37 -1 45 23 48 146 l3 88 50 9 c60 12 94 18 116 20 11
1 26 -23 48 -76z m919 55 c25 -25 6 -65 -41 -81 -14 -5 -16 -2 -11 17 3 13 1
33 -5 44 -6 11 -7 22 -4 26 11 10 48 7 61 -6z m-3384 -218 c-1 -76 -5 -94 -38
-168 -33 -72 -38 -94 -39 -160 0 -88 13 -139 55 -200 39 -57 81 -82 140 -82
76 0 90 27 104 207 l6 81 46 17 c57 21 137 65 215 117 67 46 49 53 194 -81
l91 -85 -5 -120 c-6 -131 14 -414 48 -689 l20 -169 -31 -51 c-17 -29 -78 -110
-136 -182 -57 -71 -103 -137 -101 -145 3 -21 77 -25 123 -5 20 8 38 14 39 13
2 -2 -12 -50 -31 -108 -18 -58 -36 -124 -40 -148 -7 -49 -2 -47 -154 -62 -239
-24 -351 -28 -452 -19 -167 15 -156 8 -146 87 30 255 49 539 45 682 -5 188
-68 809 -102 1013 l-25 148 46 92 c26 51 52 95 58 100 6 4 25 6 41 5 l30 -3
-1 -85z m-2797 -116 c19 -71 57 -178 85 -239 77 -172 150 -354 146 -369 -2
-10 -20 -7 -78 16 -88 36 -165 40 -255 13 -111 -32 -182 -71 -239 -130 l-53
-56 -12 58 c-7 32 -15 114 -18 181 l-6 124 -58 96 c-42 70 -60 111 -65 148
l-6 52 45 3 c25 2 58 -1 74 -8 141 -60 383 82 383 226 0 60 19 22 57 -115z
m4263 25 c0 -25 -4 -29 -27 -29 -16 -1 -39 -7 -53 -15 -14 -8 -35 -14 -47 -15
-32 0 -31 46 2 80 24 25 29 26 75 17 46 -9 50 -12 50 -38z m604 0 c43 -34 32
-109 -16 -109 -9 0 -23 10 -29 23 -7 12 -18 26 -26 30 -17 10 -8 46 15 65 21
16 25 16 56 -9z m-576 -75 c27 -18 30 -69 5 -96 -50 -56 -159 25 -118 88 19
29 78 33 113 8z m490 0 c19 -13 22 -24 20 -57 -2 -35 -8 -44 -31 -55 -41 -20
-98 2 -108 42 -7 24 -3 33 21 57 32 32 65 37 98 13z m-2154 -140 c8 -54 27
-218 41 -364 14 -146 33 -326 41 -400 12 -98 15 -183 11 -310 -5 -179 -44
-620 -56 -631 -7 -7 -368 33 -458 51 l-63 13 0 63 0 64 38 19 c68 35 67 30 64
271 l-4 217 36 21 c20 12 41 33 47 46 25 53 -37 179 -100 205 -22 10 -47 39
-90 110 -33 53 -70 111 -82 129 l-21 32 57 0 c79 0 95 11 95 64 0 43 0 44 70
86 53 31 86 61 132 118 75 94 166 232 192 290 24 54 28 47 50 -94z m1833 85
c27 -52 12 -119 -26 -119 -35 0 -91 22 -100 38 -16 30 9 100 39 110 35 12 73
0 87 -29z m158 6 c50 -49 16 -125 -54 -125 -49 0 -57 8 -64 62 -7 51 1 63 50
78 41 12 42 12 68 -15z m985 -152 c-23 -54 -52 -116 -63 -138 l-21 -40 -17 75
c-10 41 -18 80 -19 87 0 11 151 123 158 117 2 -1 -15 -47 -38 -101z m-1706
-208 c15 -9 14 -19 -14 -118 -48 -170 -212 -598 -225 -586 -6 7 -34 257 -50
439 -14 169 -20 441 -10 452 3 3 68 -36 144 -86 76 -50 146 -95 155 -101z
m1582 83 l22 -92 -90 -181 c-50 -99 -114 -217 -144 -262 -67 -101 -188 -232
-202 -218 -18 19 -62 169 -112 385 -28 118 -53 222 -55 230 -4 12 19 23 98 49
145 48 290 105 377 150 41 21 77 37 80 34 2 -2 14 -45 26 -95z m-4447 -113
c58 -42 133 -121 154 -162 15 -29 15 -32 -6 -61 l-23 -30 -34 19 c-39 20 -70
24 -70 9 0 -14 88 -56 190 -91 79 -26 114 -31 263 -40 230 -13 280 -28 313
-91 18 -35 12 -76 -17 -113 -27 -34 -41 -32 -37 7 5 54 -18 42 -31 -17 -9 -38
-20 -61 -39 -75 -47 -38 -66 -17 -47 53 5 20 4 27 -7 27 -9 0 -21 -22 -31 -53
-21 -66 -45 -89 -94 -91 -34 -1 -38 2 -38 24 0 20 6 26 28 28 30 4 36 20 10
28 -10 3 -40 16 -68 29 -55 27 -46 27 -295 -10 -127 -19 -191 -16 -273 15 -85
32 -126 91 -135 195 -6 85 18 162 83 260 57 87 131 175 147 175 6 0 31 -16 57
-35z m-644 -291 c9 -4 48 -50 87 -103 89 -119 181 -210 364 -357 131 -105 159
-123 375 -232 194 -98 392 -189 607 -279 l33 -14 -61 -45 c-112 -85 -150 -147
-185 -298 -16 -71 -27 -100 -36 -99 -8 1 -43 10 -79 19 -73 18 -166 22 -254
10 -50 -7 -64 -14 -97 -47 l-38 -38 -53 15 c-82 24 -102 37 -112 69 -28 93
-22 88 -96 83 l-67 -5 14 69 c12 54 12 72 3 84 -14 16 -69 18 -122 4 -25 -7
-57 -7 -98 -1 -49 8 -71 7 -104 -4 -22 -8 -64 -15 -91 -15 -41 0 -57 -6 -87
-30 l-37 -31 -32 63 c-52 105 -128 166 -190 153 -27 -6 -30 -3 -48 37 -22 53
-113 137 -185 173 -45 23 -62 25 -172 25 -146 0 -155 5 -135 77 21 80 72 191
122 268 96 147 175 213 374 312 149 74 240 111 319 128 34 7 62 14 63 14 1 1
9 -2 18 -5z m1750 -271 c65 -24 79 -33 77 -49 -7 -34 -41 -71 -114 -121 -156
-108 -270 -150 -470 -173 -178 -21 -538 -1 -538 29 0 9 313 171 329 171 6 0
20 -9 31 -20 11 -11 33 -20 50 -20 35 0 91 26 103 47 6 10 18 12 37 8 36 -8
87 17 102 49 6 14 22 26 38 30 17 3 36 18 49 40 12 19 27 37 34 40 7 3 53 4
102 2 69 -3 109 -11 170 -33z m1509 -570 c8 -88 22 -161 35 -182 8 -12 23 -8
86 23 43 20 79 35 81 33 3 -2 1 -21 -4 -42 l-8 -38 -129 -22 c-231 -39 -225
-39 -225 -8 0 15 18 85 41 156 37 119 42 129 72 142 18 8 35 14 38 15 3 0 9
-35 13 -77z m362 -102 l31 -78 -21 -13 c-12 -8 -49 -15 -83 -16 -59 -3 -63 -2
-63 19 0 45 21 92 57 129 20 21 40 38 43 38 3 0 19 -35 36 -79z m-1898 -53
c-4 -54 -9 -68 -37 -97 -39 -42 -83 -126 -106 -205 -17 -57 -17 -57 -37 -39
-17 15 -19 26 -15 68 3 28 15 70 26 95 24 53 27 124 6 163 -13 25 -12 29 1 34
17 6 145 41 158 42 4 1 6 -27 4 -61z"/>
<path d="M2052 6785 c-40 -17 -34 -37 8 -28 28 5 30 3 30 -24 0 -33 25 -73 46
-73 18 0 18 14 -1 30 -8 7 -15 26 -15 42 0 28 2 29 30 23 46 -10 38 19 -9 33
-47 15 -48 15 -89 -3z"/>
<path d="M8307 6681 c-16 -10 -42 -35 -58 -54 -45 -54 -15 -57 36 -4 31 33 53
47 76 49 18 2 34 9 37 16 6 19 -59 15 -91 -7z"/>
<path d="M3073 7563 c-18 -7 -16 -27 5 -46 25 -23 49 -21 62 4 20 36 -21 61
-67 42z"/>
<path d="M2461 7363 c-27 -23 -18 -61 17 -70 33 -8 56 8 60 41 3 20 -2 28 -23
36 -33 13 -29 13 -54 -7z"/>
<path d="M6778 6893 c-10 -2 -18 -11 -18 -20 0 -10 6 -14 20 -10 23 6 25 -5 8
-33 -7 -10 -9 -22 -5 -26 12 -13 46 29 49 61 3 31 -13 40 -54 28z"/>
<path d="M5886 7264 c-20 -20 -20 -29 0 -49 23 -23 58 -15 62 13 7 44 -32 67
-62 36z"/>
<path d="M6436 7155 c-14 -37 29 -74 64 -55 22 12 26 40 8 58 -17 17 -65 15
-72 -3z"/>
<path d="M4705 6000 c-11 -4 -28 -17 -39 -28 -10 -12 -34 -26 -52 -32 -29 -10
-37 -9 -60 9 -29 23 -83 36 -112 27 -22 -7 -42 -46 -42 -82 0 -31 34 -101 68
-136 35 -38 85 -38 123 -2 24 23 38 27 97 29 80 4 109 16 118 49 7 29 -12 127
-29 149 -16 20 -47 28 -72 17z m49 -42 c8 -13 18 -47 22 -75 6 -51 6 -53 -22
-63 -44 -17 -69 -9 -72 23 -2 19 1 27 12 27 23 0 20 21 -4 27 -28 7 -25 38 6
62 34 26 40 26 58 -1z m-240 -22 c47 -19 54 -35 25 -57 l-24 -18 26 -10 c30
-11 46 -55 28 -77 -6 -8 -24 -14 -40 -14 -51 0 -113 111 -94 169 7 25 32 27
79 7z m134 -79 c3 -42 1 -47 -18 -47 -35 0 -56 84 -22 93 31 8 37 1 40 -46z"/>
<path d="M4195 5141 c-3 -5 -1 -13 5 -16 8 -5 8 -11 0 -20 -19 -23 10 -30 32
-8 18 19 18 21 3 37 -19 18 -31 20 -40 7z"/>
<path d="M4461 5353 c-13 -26 1 -45 30 -41 18 2 24 9 24 28 0 32 -39 41 -54
13z"/>
<path d="M4860 5370 c-14 -26 -5 -40 25 -40 27 0 41 26 24 46 -16 20 -37 17
-49 -6z"/>
<path d="M6340 3815 c0 -9 9 -15 25 -15 31 0 35 -35 5 -45 -30 -9 -24 -27 8
-23 21 2 28 9 30 31 3 21 9 27 28 27 32 0 31 18 -2 30 -40 16 -94 13 -94 -5z"/>
<path d="M2733 3550 c-28 -12 -30 -30 -3 -30 14 0 20 -7 20 -24 0 -29 26 -54
41 -39 8 8 7 13 0 17 -6 4 -11 19 -11 33 0 20 4 24 18 18 35 -15 52 -17 52 -7
0 29 -76 50 -117 32z"/>
<path d="M4645 3930 c-4 -6 11 -31 35 -56 83 -90 105 -198 60 -293 -13 -28
-21 -54 -17 -57 11 -11 29 9 50 55 29 66 27 141 -7 217 -30 66 -109 154 -121
134z"/>
<path d="M6080 4155 c-19 -23 2 -65 32 -65 40 0 54 15 42 47 -11 33 -53 43
-74 18z"/>
<path d="M5577 4183 c-4 -3 -7 -19 -7 -35 0 -34 21 -45 56 -30 28 13 33 56 8
66 -21 8 -49 8 -57 -1z"/>
<path d="M3530 4116 c-20 -25 -8 -61 22 -64 35 -4 68 39 48 63 -16 19 -54 19
-70 1z"/>
<path d="M3078 3949 c-10 -5 -18 -20 -18 -33 0 -53 67 -62 85 -13 8 24 6 31
-10 43 -22 16 -34 17 -57 3z"/>
<path d="M7325 3464 c-19 -26 -35 -51 -35 -55 0 -22 28 -4 60 39 44 58 45 62
26 62 -8 0 -31 -21 -51 -46z"/>
<path d="M3380 2035 c-17 -20 -5 -45 20 -45 11 0 23 7 26 15 6 15 -11 45 -26
45 -4 0 -13 -7 -20 -15z"/>
</g>
</svg>
